<svg id="visual" viewBox="0 0 960 540" width="960" height="540" xmlns="http://www.w3.org/2000/svg" xmlns:xlink="http://www.w3.org/1999/xlink" version="1.1"><rect x="0" y="0" width="960" height="540" fill="none"></rect><defs><linearGradient id="grad1_0" x1="43.8%" y1="0%" x2="100%" y2="100%"><stop offset="14.444444444444446%" stop-color="#ffffff" stop-opacity="1"></stop><stop offset="85.55555555555554%" stop-color="#ffffff" stop-opacity="1"></stop></linearGradient></defs><defs><linearGradient id="grad2_0" x1="0%" y1="0%" x2="56.3%" y2="100%"><stop offset="14.444444444444446%" stop-color="#ffffff" stop-opacity="1"></stop><stop offset="85.55555555555554%" stop-color="#ffffff" stop-opacity="1"></stop></linearGradient></defs><g transform="translate(960, 0)"><path d="M0 243C-30.5 230.7 -60.9 218.4 -83.4 201.4C-105.9 184.4 -120.5 162.6 -145.7 145.7C-170.8 128.7 -206.5 116.5 -224.5 93C-242.5 69.5 -242.7 34.8 -243 0L0 0Z" fill="#FBAE3C"></path></g><g transform="translate(0, 540)"><path d="M0 -243C32 -237.2 64 -231.4 89.9 -217.1C115.8 -202.8 135.6 -180 159.1 -159.1C182.6 -138.2 209.9 -119.2 224.5 -93C239.1 -66.8 241.1 -33.4 243 0L0 0Z" fill="#FBAE3C"></path></g></svg>