<svg xmlns="http://www.w3.org/2000/svg" xmlns:xlink="http://www.w3.org/1999/xlink" width="250" zoomAndPan="magnify" viewBox="0 0 187.5 74.999997" height="100" preserveAspectRatio="xMidYMid meet" version="1.0"><defs><g/></defs><g fill="#d9d9d9" fill-opacity="1"><g transform="translate(1.846638, 50.602813)"><g><path d="M 15.828125 0 L 2.0625 0 L 2.0625 -23.765625 L 15.828125 -23.765625 C 18.066406 -23.765625 20.050781 -23.273438 21.78125 -22.296875 C 23.519531 -21.316406 24.890625 -19.953125 25.890625 -18.203125 C 26.890625 -16.460938 27.390625 -14.4375 27.390625 -12.125 C 27.390625 -10.40625 27.101562 -8.804688 26.53125 -7.328125 C 25.96875 -5.859375 25.160156 -4.570312 24.109375 -3.46875 C 23.066406 -2.375 21.84375 -1.519531 20.4375 -0.90625 C 19.039062 -0.300781 17.503906 0 15.828125 0 Z M 6.171875 -4.15625 L 15.828125 -4.15625 C 17.265625 -4.15625 18.535156 -4.488281 19.640625 -5.15625 C 20.753906 -5.832031 21.628906 -6.757812 22.265625 -7.9375 C 22.910156 -9.113281 23.234375 -10.445312 23.234375 -11.9375 C 23.234375 -13.4375 22.910156 -14.765625 22.265625 -15.921875 C 21.628906 -17.078125 20.753906 -17.976562 19.640625 -18.625 C 18.535156 -19.28125 17.265625 -19.609375 15.828125 -19.609375 L 6.171875 -19.609375 Z M 6.171875 -4.15625 "/></g></g></g><g fill="#d9d9d9" fill-opacity="1"><g transform="translate(30.581268, 50.602813)"><g><path d="M 23.3125 0 L 2.0625 0 L 2.0625 -23.765625 L 23.28125 -23.765625 L 23.28125 -19.609375 L 6.171875 -19.609375 L 6.171875 -4.15625 L 23.3125 -4.15625 Z M 22.390625 -10.328125 L 9.21875 -10.328125 L 9.21875 -13.828125 L 22.390625 -13.828125 Z M 22.390625 -10.328125 "/></g></g></g><g fill="#d9d9d9" fill-opacity="1"><g transform="translate(55.393081, 50.602813)"><g><path d="M 25.796875 0 L 12.90625 0 C 11.25 0 9.71875 -0.300781 8.3125 -0.90625 C 6.90625 -1.519531 5.6875 -2.375 4.65625 -3.46875 C 3.625 -4.570312 2.816406 -5.859375 2.234375 -7.328125 C 1.660156 -8.804688 1.375 -10.40625 1.375 -12.125 C 1.375 -14.457031 1.875 -16.492188 2.875 -18.234375 C 3.875 -19.984375 5.242188 -21.34375 6.984375 -22.3125 C 8.734375 -23.28125 10.707031 -23.765625 12.90625 -23.765625 L 25.796875 -23.765625 L 25.796875 -19.609375 L 12.90625 -19.609375 C 11.488281 -19.609375 10.222656 -19.28125 9.109375 -18.625 C 8.003906 -17.976562 7.128906 -17.078125 6.484375 -15.921875 C 5.847656 -14.765625 5.53125 -13.4375 5.53125 -11.9375 C 5.53125 -10.445312 5.84375 -9.113281 6.46875 -7.9375 C 7.101562 -6.757812 7.976562 -5.832031 9.09375 -5.15625 C 10.21875 -4.488281 11.488281 -4.15625 12.90625 -4.15625 L 25.796875 -4.15625 Z M 25.796875 0 "/></g></g></g><g fill="#d9d9d9" fill-opacity="1"><g transform="translate(82.493207, 50.602813)"><g><path d="M 18.703125 0 L 12.90625 0 C 11.25 0 9.71875 -0.300781 8.3125 -0.90625 C 6.90625 -1.519531 5.6875 -2.375 4.65625 -3.46875 C 3.625 -4.570312 2.816406 -5.859375 2.234375 -7.328125 C 1.660156 -8.804688 1.375 -10.40625 1.375 -12.125 C 1.375 -14.457031 1.875 -16.492188 2.875 -18.234375 C 3.875 -19.984375 5.242188 -21.34375 6.984375 -22.3125 C 8.734375 -23.28125 10.707031 -23.765625 12.90625 -23.765625 L 18.703125 -23.765625 C 20.984375 -23.765625 23 -23.273438 24.75 -22.296875 C 26.507812 -21.316406 27.878906 -19.953125 28.859375 -18.203125 C 29.835938 -16.460938 30.328125 -14.4375 30.328125 -12.125 C 30.328125 -10.40625 30.035156 -8.804688 29.453125 -7.328125 C 28.878906 -5.859375 28.078125 -4.570312 27.046875 -3.46875 C 26.015625 -2.375 24.789062 -1.519531 23.375 -0.90625 C 21.957031 -0.300781 20.398438 0 18.703125 0 Z M 12.90625 -4.15625 L 18.703125 -4.15625 C 20.160156 -4.15625 21.445312 -4.488281 22.5625 -5.15625 C 23.6875 -5.832031 24.570312 -6.757812 25.21875 -7.9375 C 25.863281 -9.113281 26.1875 -10.445312 26.1875 -11.9375 C 26.1875 -13.4375 25.863281 -14.765625 25.21875 -15.921875 C 24.570312 -17.078125 23.6875 -17.976562 22.5625 -18.625 C 21.445312 -19.28125 20.160156 -19.609375 18.703125 -19.609375 L 12.90625 -19.609375 C 11.488281 -19.609375 10.222656 -19.28125 9.109375 -18.625 C 8.003906 -17.976562 7.128906 -17.078125 6.484375 -15.921875 C 5.847656 -14.765625 5.53125 -13.4375 5.53125 -11.9375 C 5.53125 -10.445312 5.84375 -9.113281 6.46875 -7.9375 C 7.101562 -6.757812 7.976562 -5.832031 9.09375 -5.15625 C 10.21875 -4.488281 11.488281 -4.15625 12.90625 -4.15625 Z M 12.90625 -4.15625 "/></g></g></g><g fill="#d9d9d9" fill-opacity="1"><g transform="translate(114.137257, 50.602813)"><g><path d="M 30 0 L 24.125 0 L 18.109375 -6.609375 L 9.21875 -6.609375 L 9.21875 -10.265625 L 19.125 -10.265625 C 20.601562 -10.265625 21.726562 -10.675781 22.5 -11.5 C 23.28125 -12.332031 23.671875 -13.507812 23.671875 -15.03125 C 23.671875 -16.582031 23.265625 -17.734375 22.453125 -18.484375 C 21.648438 -19.234375 20.539062 -19.609375 19.125 -19.609375 L 6.171875 -19.609375 L 6.171875 0 L 2.0625 0 L 2.0625 -23.765625 L 19.125 -23.765625 C 21.84375 -23.765625 23.957031 -22.984375 25.46875 -21.421875 C 26.988281 -19.867188 27.75 -17.765625 27.75 -15.109375 C 27.75 -13.140625 27.316406 -11.476562 26.453125 -10.125 C 25.597656 -8.78125 24.394531 -7.8125 22.84375 -7.21875 Z M 30 0 "/></g></g></g><g fill="#f8c617" fill-opacity="1"><g transform="translate(144.248145, 50.602813)"><g><path d="M 31.84375 0 L 26.84375 0 L 23.28125 -5.984375 L 12.03125 -5.984375 L 13.984375 -9.34375 L 21.28125 -9.34375 L 15.984375 -18.234375 L 5.203125 0 L 0.453125 0 L 14.125 -22.75 C 14.363281 -23.164062 14.644531 -23.492188 14.96875 -23.734375 C 15.300781 -23.972656 15.691406 -24.09375 16.140625 -24.09375 C 16.597656 -24.09375 16.984375 -23.972656 17.296875 -23.734375 C 17.617188 -23.492188 17.898438 -23.164062 18.140625 -22.75 Z M 31.84375 0 "/></g></g></g><g fill="#f8c617" fill-opacity="1"><g transform="translate(176.578692, 50.602813)"><g><path d="M 6.5 -1.96875 C 6.5 -1.351562 6.28125 -0.828125 5.84375 -0.390625 C 5.414062 0.046875 4.882812 0.265625 4.25 0.265625 C 3.632812 0.265625 3.113281 0.046875 2.6875 -0.390625 C 2.269531 -0.828125 2.0625 -1.351562 2.0625 -1.96875 C 2.0625 -2.59375 2.269531 -3.117188 2.6875 -3.546875 C 3.113281 -3.972656 3.632812 -4.1875 4.25 -4.1875 C 4.882812 -4.1875 5.414062 -3.972656 5.84375 -3.546875 C 6.28125 -3.117188 6.5 -2.59375 6.5 -1.96875 Z M 6.5 -1.96875 "/></g></g></g></svg>